<svg width="407" height="92" viewBox="0 0 407 92" fill="none" xmlns="http://www.w3.org/2000/svg">
<rect x="28.9764" width="25.3543" height="63.0236" rx="6" fill="#39B9E4"/>
<rect y="28.9764" width="25.3543" height="63.0236" rx="6" fill="#64D8FF"/>
<rect x="28.9764" y="92" width="25.3543" height="63.0236" rx="6" transform="rotate(-90 28.9764 92)" fill="#19A1DC"/>
<path d="M111.976 72V21.6H123.64V62.496H148.912V72H111.976ZM172.858 72.576C168.73 72.576 165.058 71.712 161.842 69.984C158.674 68.256 156.154 65.904 154.282 62.928C152.458 59.904 151.546 56.472 151.546 52.632C151.546 48.744 152.458 45.312 154.282 42.336C156.154 39.312 158.674 36.96 161.842 35.28C165.058 33.552 168.73 32.688 172.858 32.688C176.938 32.688 180.586 33.552 183.802 35.28C187.018 36.96 189.538 39.288 191.362 42.264C193.186 45.24 194.098 48.696 194.098 52.632C194.098 56.472 193.186 59.904 191.362 62.928C189.538 65.904 187.018 68.256 183.802 69.984C180.586 71.712 176.938 72.576 172.858 72.576ZM172.858 63.36C174.73 63.36 176.41 62.928 177.898 62.064C179.386 61.2 180.562 59.976 181.426 58.392C182.29 56.76 182.722 54.84 182.722 52.632C182.722 50.376 182.29 48.456 181.426 46.872C180.562 45.288 179.386 44.064 177.898 43.2C176.41 42.336 174.73 41.904 172.858 41.904C170.986 41.904 169.306 42.336 167.818 43.2C166.33 44.064 165.13 45.288 164.218 46.872C163.354 48.456 162.922 50.376 162.922 52.632C162.922 54.84 163.354 56.76 164.218 58.392C165.13 59.976 166.33 61.2 167.818 62.064C169.306 62.928 170.986 63.36 172.858 63.36ZM219.822 86.544C216.174 86.544 212.646 86.088 209.238 85.176C205.878 84.312 203.07 82.992 200.814 81.216L205.278 73.152C206.91 74.496 208.974 75.552 211.47 76.32C214.014 77.136 216.51 77.544 218.958 77.544C222.942 77.544 225.822 76.656 227.598 74.88C229.422 73.104 230.334 70.464 230.334 66.96V61.128L231.054 51.408L230.91 41.616V33.264H241.566V65.52C241.566 72.72 239.694 78.024 235.95 81.432C232.206 84.84 226.83 86.544 219.822 86.544ZM218.094 70.128C214.494 70.128 211.23 69.36 208.302 67.824C205.422 66.24 203.094 64.056 201.318 61.272C199.59 58.44 198.726 55.152 198.726 51.408C198.726 47.616 199.59 44.328 201.318 41.544C203.094 38.712 205.422 36.528 208.302 34.992C211.23 33.456 214.494 32.688 218.094 32.688C221.358 32.688 224.238 33.36 226.734 34.704C229.23 36 231.174 38.04 232.566 40.824C233.958 43.56 234.654 47.088 234.654 51.408C234.654 55.68 233.958 59.208 232.566 61.992C231.174 64.728 229.23 66.768 226.734 68.112C224.238 69.456 221.358 70.128 218.094 70.128ZM220.326 60.912C222.294 60.912 224.046 60.528 225.582 59.76C227.118 58.944 228.318 57.816 229.182 56.376C230.046 54.936 230.478 53.28 230.478 51.408C230.478 49.488 230.046 47.832 229.182 46.44C228.318 45 227.118 43.896 225.582 43.128C224.046 42.312 222.294 41.904 220.326 41.904C218.358 41.904 216.606 42.312 215.07 43.128C213.534 43.896 212.31 45 211.398 46.44C210.534 47.832 210.102 49.488 210.102 51.408C210.102 53.28 210.534 54.936 211.398 56.376C212.31 57.816 213.534 58.944 215.07 59.76C216.606 60.528 218.358 60.912 220.326 60.912ZM252.02 72V33.264H263.252V72H252.02ZM257.636 27.864C255.572 27.864 253.892 27.264 252.596 26.064C251.3 24.864 250.652 23.376 250.652 21.6C250.652 19.824 251.3 18.336 252.596 17.136C253.892 15.936 255.572 15.336 257.636 15.336C259.7 15.336 261.38 15.912 262.676 17.064C263.972 18.168 264.62 19.608 264.62 21.384C264.62 23.256 263.972 24.816 262.676 26.064C261.428 27.264 259.748 27.864 257.636 27.864ZM290.308 72.576C286.66 72.576 283.372 71.76 280.444 70.128C277.516 68.448 275.188 66.12 273.46 63.144C271.78 60.168 270.94 56.664 270.94 52.632C270.94 48.552 271.78 45.024 273.46 42.048C275.188 39.072 277.516 36.768 280.444 35.136C283.372 33.504 286.66 32.688 290.308 32.688C293.572 32.688 296.428 33.408 298.876 34.848C301.324 36.288 303.22 38.472 304.564 41.4C305.908 44.328 306.58 48.072 306.58 52.632C306.58 57.144 305.932 60.888 304.636 63.864C303.34 66.792 301.468 68.976 299.02 70.416C296.62 71.856 293.716 72.576 290.308 72.576ZM292.252 63.36C294.076 63.36 295.732 62.928 297.22 62.064C298.708 61.2 299.884 59.976 300.748 58.392C301.66 56.76 302.116 54.84 302.116 52.632C302.116 50.376 301.66 48.456 300.748 46.872C299.884 45.288 298.708 44.064 297.22 43.2C295.732 42.336 294.076 41.904 292.252 41.904C290.38 41.904 288.7 42.336 287.212 43.2C285.724 44.064 284.524 45.288 283.612 46.872C282.748 48.456 282.316 50.376 282.316 52.632C282.316 54.84 282.748 56.76 283.612 58.392C284.524 59.976 285.724 61.2 287.212 62.064C288.7 62.928 290.38 63.36 292.252 63.36ZM302.404 72V64.08L302.62 52.56L301.9 41.112V18.576H313.132V72H302.404ZM342.752 72.576C338.336 72.576 334.448 71.712 331.088 69.984C327.776 68.256 325.208 65.904 323.384 62.928C321.56 59.904 320.648 56.472 320.648 52.632C320.648 48.744 321.536 45.312 323.312 42.336C325.136 39.312 327.608 36.96 330.728 35.28C333.848 33.552 337.376 32.688 341.312 32.688C345.104 32.688 348.512 33.504 351.536 35.136C354.608 36.72 357.032 39.024 358.808 42.048C360.584 45.024 361.472 48.6 361.472 52.776C361.472 53.208 361.448 53.712 361.4 54.288C361.352 54.816 361.304 55.32 361.256 55.8H329.792V49.248H355.352L351.032 51.192C351.032 49.176 350.624 47.424 349.808 45.936C348.992 44.448 347.864 43.296 346.424 42.48C344.984 41.616 343.304 41.184 341.384 41.184C339.464 41.184 337.76 41.616 336.272 42.48C334.832 43.296 333.704 44.472 332.888 46.008C332.072 47.496 331.664 49.272 331.664 51.336V53.064C331.664 55.176 332.12 57.048 333.032 58.68C333.992 60.264 335.312 61.488 336.992 62.352C338.72 63.168 340.736 63.576 343.04 63.576C345.104 63.576 346.904 63.264 348.44 62.64C350.024 62.016 351.464 61.08 352.76 59.832L358.736 66.312C356.96 68.328 354.728 69.888 352.04 70.992C349.352 72.048 346.256 72.576 342.752 72.576ZM378.759 72L362.486 33.264H374.079L387.615 66.6H381.855L395.895 33.264H406.695L390.351 72H378.759Z" fill="black"/>
</svg>
